<svg width="32" height="32" viewBox="0 0 32 32" fill="none" xmlns="http://www.w3.org/2000/svg">
<path d="M27 15.167H5V23.167L5.00488 23.3818C5.05808 24.4528 5.50773 25.4687 6.26953 26.2305C7.08211 27.043 8.18385 27.4999 9.33301 27.5H22.667C23.8161 27.4999 24.9179 27.0431 25.7305 26.2305C26.5431 25.4179 26.9999 24.3161 27 23.167V15.167ZM21.667 8.83301V7.16699H10.333V8.83301C10.333 9.38529 9.88529 9.83301 9.33301 9.83301C8.78087 9.83283 8.33301 9.38518 8.33301 8.83301V7.28418C7.55808 7.46807 6.84195 7.86325 6.26953 8.43555C5.45687 9.2482 5 10.3507 5 11.5V13.167H27V11.5C27 10.3507 26.5431 9.2482 25.7305 8.43555C25.1581 7.86325 24.4419 7.46807 23.667 7.28418V8.83301C23.667 9.38518 23.2191 9.83283 22.667 9.83301C22.1147 9.83301 21.667 9.38529 21.667 8.83301ZM29 23.167C28.9999 24.8466 28.3322 26.4569 27.1445 27.6445C25.9569 28.8322 24.3466 29.4999 22.667 29.5H9.33301C7.65342 29.4999 6.04312 28.8322 4.85547 27.6445C3.74191 26.531 3.08541 25.0459 3.00781 23.4805L3 23.167V11.5C3 9.8203 3.66774 8.20921 4.85547 7.02148C5.8047 6.07239 7.02417 5.45645 8.33301 5.24707V3.5C8.33301 2.94782 8.78087 2.50018 9.33301 2.5C9.88529 2.5 10.333 2.94772 10.333 3.5V5.16699H21.667V3.5C21.667 2.94772 22.1147 2.5 22.667 2.5C23.2191 2.50018 23.667 2.94782 23.667 3.5V5.24707C24.9758 5.45645 26.1953 6.07239 27.1445 7.02148C28.3323 8.20921 29 9.8203 29 11.5V23.167Z" fill="black"/>
</svg>
