<svg width="32" height="32" viewBox="0 0 32 32" fill="none" xmlns="http://www.w3.org/2000/svg">
<path d="M10.2223 16.0003C10.2223 15.0325 10.6035 14.1036 11.2828 13.4143L11.2877 13.4085L20.0699 4.62625L20.1461 4.55789C20.5388 4.23741 21.1178 4.26023 21.484 4.62625C21.85 4.99226 21.8734 5.57137 21.5533 5.96414L21.484 6.04031L12.7018 14.8235C12.3946 15.138 12.2223 15.5604 12.2223 16.0003L12.2301 16.1653C12.2677 16.547 12.4352 16.9063 12.7067 17.1819L21.484 25.9593L21.5533 26.0354C21.8736 26.4282 21.8501 27.0072 21.484 27.3733C21.1179 27.7394 20.5389 27.7629 20.1461 27.4427L20.0699 27.3733L11.2828 18.5862C10.646 17.94 10.2715 17.0829 10.2272 16.1809L10.2223 16.0003Z" fill="black"/>
</svg>
