<svg width="32" height="32" viewBox="0 0 32 32" fill="none" xmlns="http://www.w3.org/2000/svg">
<path d="M24.7019 5.8913C25.0947 5.57061 25.6745 5.59342 26.0407 5.95966C26.4066 6.32573 26.4293 6.90484 26.1091 7.29755L26.0407 7.37372L17.4138 15.9997L26.0407 24.6266L26.1091 24.7018C26.4296 25.0946 26.4069 25.6745 26.0407 26.0407C25.6745 26.4069 25.0946 26.4296 24.7019 26.1091L24.6267 26.0407L15.9997 17.4138L7.37374 26.0407C6.98326 26.431 6.35017 26.431 5.95968 26.0407C5.56921 25.6502 5.56932 25.0172 5.95968 24.6266L14.5857 15.9997L5.95968 7.37372L5.89132 7.29755C5.57097 6.90477 5.59357 6.32577 5.95968 5.95966C6.3258 5.59354 6.9048 5.57095 7.29757 5.8913L7.37374 5.95966L15.9997 14.5856L24.6267 5.95966L24.7019 5.8913Z" fill="black"/>
</svg>
