<svg width="32" height="32" viewBox="0 0 32 32" fill="none" xmlns="http://www.w3.org/2000/svg">
<path d="M2.67444 8.82788C2.711 8.08579 2.87484 7.35463 3.15979 6.66675C3.48553 5.88049 3.96321 5.16594 4.56506 4.56421C5.16685 3.96257 5.88139 3.48547 6.6676 3.15991C7.45393 2.83437 8.29702 2.66656 9.14807 2.66675H22.8531L23.1715 2.67456C23.914 2.71091 24.6454 2.87493 25.3336 3.15991C26.1201 3.48557 26.8352 3.96231 27.4371 4.56421C28.039 5.16611 28.5158 5.88127 28.8414 6.66772C29.1675 7.4553 29.3338 8.29825 29.3336 9.14819V17.6042L29.3287 17.7888C29.3075 18.2188 29.212 18.6423 29.0465 19.0408C28.8576 19.4957 28.5799 19.9078 28.2311 20.2556L28.2321 20.2566L20.2565 28.2322C19.9085 28.5812 19.4949 28.8587 19.0397 29.0476C18.641 29.2131 18.217 29.3078 17.7867 29.3289L17.6022 29.3337H9.14905C8.29793 29.3341 7.45501 29.166 6.66858 28.8406C5.88204 28.515 5.16707 28.0381 4.56506 27.4363C3.96299 26.8343 3.48555 26.1193 3.15979 25.3328C2.87477 24.6445 2.71083 23.9131 2.67444 23.1707L2.66663 22.8523V9.14722L2.67444 8.82788ZM4.66663 22.8523L4.67151 23.073C4.69668 23.5861 4.81052 24.0915 5.00745 24.5671C5.23262 25.1108 5.56298 25.6051 5.97913 26.0212C6.39533 26.4373 6.88945 26.7678 7.43323 26.9929C7.97709 27.218 8.56045 27.334 9.14905 27.3337H17.6031L17.775 27.325C17.946 27.3081 18.1138 27.266 18.2731 27.2C18.4853 27.1119 18.6782 26.9828 18.8405 26.8201L26.8199 18.8406L26.9352 18.7136C27.0442 18.5811 27.1337 18.4332 27.1998 18.2742C27.2659 18.1151 27.3079 17.9469 27.3248 17.7761L27.3336 17.6042V9.14819C27.3338 8.55844 27.2184 7.97497 26.9938 7.43237C26.7686 6.8888 26.4381 6.39528 26.0221 5.97925C25.6061 5.56321 25.1126 5.23271 24.569 5.00757C24.0932 4.81056 23.5871 4.69677 23.0739 4.67163L22.8531 4.66675H9.14807C8.55973 4.66661 7.97684 4.78254 7.43323 5.00757C6.88961 5.23263 6.39523 5.5623 5.97913 5.97827C5.563 6.39429 5.23266 6.88876 5.00745 7.43237C4.78234 7.97588 4.66663 8.55893 4.66663 9.14722V22.8523Z" fill="black"/>
<path d="M20.4771 17.2717C21.2134 17.0194 21.9977 16.9383 22.77 17.0353L28.2505 17.7209C28.7984 17.7894 29.187 18.2892 29.1187 18.8371C29.0544 19.3507 28.6116 19.7247 28.105 19.7131L28.0025 19.7053L22.523 19.0207C22.0528 18.9615 21.5738 19.0098 21.1255 19.1633C20.6771 19.3169 20.2692 19.5713 19.9341 19.9064C19.599 20.2417 19.3445 20.6494 19.1909 21.0978C19.0565 21.4905 19.0024 21.9057 19.0308 22.3186L19.0484 22.4943V22.4963L19.7339 27.9758L19.7407 28.0783C19.7524 28.5848 19.3792 29.0276 18.8657 29.092C18.3521 29.1562 17.8807 28.8192 17.7671 28.3254L17.7485 28.2238L17.064 22.7453L17.0357 22.4553C16.9891 21.7771 17.0785 21.0954 17.2993 20.4504C17.5516 19.7134 17.9683 19.0433 18.5191 18.4924C19.0698 17.9414 19.7401 17.5242 20.4771 17.2717ZM13.2583 20.4816L13.3609 20.4865C13.8651 20.5377 14.2583 20.9639 14.2583 21.4816C14.2582 21.9993 13.865 22.4246 13.3609 22.4758L13.2583 22.4816H9.14796C8.59575 22.4816 8.14808 22.0338 8.14796 21.4816C8.14796 20.9294 8.59567 20.4816 9.14796 20.4816H13.2583ZM14.6294 15.0002L14.7319 15.0051C15.236 15.0565 15.6294 15.4826 15.6294 16.0002C15.6293 16.5178 15.236 16.9439 14.7319 16.9953L14.6294 17.0002H9.14796C8.59571 17.0002 8.14802 16.5524 8.14796 16.0002C8.14796 15.4479 8.59567 15.0002 9.14796 15.0002H14.6294ZM21.481 9.51875L21.5835 9.52363C22.0878 9.57481 22.481 10.001 22.481 10.5187C22.481 11.0365 22.0878 11.4627 21.5835 11.5139L21.481 11.5187H9.14796C8.59567 11.5187 8.14796 11.071 8.14796 10.5187C8.14796 9.96646 8.59567 9.51875 9.14796 9.51875H21.481Z" fill="black"/>
</svg>
