<svg width="32" height="32" viewBox="0 0 32 32" fill="none" xmlns="http://www.w3.org/2000/svg">
<path d="M6.29333 24.705V9.01949H4.39197C3.83968 9.01949 3.39197 8.57177 3.39197 8.01949C3.39216 7.46737 3.8398 7.01949 4.39197 7.01949H24.6849C24.6917 7.01935 24.6986 7.01851 24.7054 7.01851C24.7123 7.01851 24.7191 7.01935 24.726 7.01949H27.6078L27.7103 7.02535C28.2144 7.07661 28.6076 7.50193 28.6078 8.01949C28.6078 8.53721 28.2145 8.96334 27.7103 9.0146L27.6078 9.01949H25.7054V24.707L25.6996 24.9355C25.643 26.0792 25.1635 27.1649 24.35 27.9785C23.4823 28.8459 22.3054 29.333 21.0785 29.333H10.9213C10.3135 29.3331 9.7113 29.2139 9.14978 28.9814C8.58844 28.749 8.07846 28.408 7.6488 27.9785C7.219 27.5487 6.87741 27.0381 6.6449 26.4765C6.44147 25.9851 6.32513 25.4626 6.29919 24.9326L6.29333 24.705ZM8.29333 24.706C8.29327 25.0509 8.36162 25.3922 8.49353 25.7109C8.62552 26.0297 8.81889 26.3194 9.06287 26.5634C9.30689 26.8075 9.59655 27.0017 9.91541 27.1337C10.2342 27.2657 10.5763 27.3331 10.9213 27.333H21.0785C21.7751 27.333 22.4433 27.056 22.9359 26.5634C23.3669 26.1323 23.6331 25.5671 23.6927 24.9658L23.7054 24.707V9.01949H8.29333V24.706Z" fill="black"/>
<path d="M19.3537 8.02002V5.84131L19.3478 5.72608C19.3366 5.61119 19.3081 5.49817 19.2638 5.39112C19.2048 5.24858 19.1181 5.11931 19.0089 5.01026C18.8998 4.90121 18.7707 4.81429 18.6281 4.75537C18.521 4.71117 18.408 4.6835 18.2931 4.67237L18.1779 4.66651H13.8224C13.6681 4.66622 13.5149 4.69647 13.3722 4.75537C13.2295 4.8143 13.0996 4.90112 12.9904 5.01026C12.8813 5.11931 12.7945 5.2486 12.7355 5.39112C12.6765 5.53378 12.6464 5.68692 12.6466 5.84131V8.02002C12.6465 8.57222 12.1989 9.02002 11.6466 9.02002C11.0944 9.02002 10.6467 8.57222 10.6466 8.02002V5.84229C10.6463 5.42523 10.7284 5.01186 10.8878 4.62647C11.0474 4.24086 11.2812 3.89024 11.5763 3.59522C11.8716 3.3001 12.2227 3.06611 12.6085 2.90674C12.994 2.74755 13.4073 2.6669 13.8244 2.66748L18.1759 2.66651C18.5927 2.66598 19.0055 2.7477 19.3908 2.90674C19.7767 3.0661 20.1277 3.30011 20.423 3.59522C20.7183 3.89032 20.9528 4.24073 21.1125 4.62647C21.2719 5.01186 21.354 5.42523 21.3537 5.84229V8.02002C21.3536 8.5721 20.9057 9.01983 20.3537 9.02002C19.8014 9.02002 19.3538 8.57222 19.3537 8.02002Z" fill="black"/>
</svg>
